# xmcd
#
# Track frame offsets:
#	150
#	22320
#	41524
#	68502
#	84735
#	109482
#	133323
#	153824
#	175776
#	189389
#	215498
#	243632
#	282186
#	295260
#	316423
#
# Disc length: 4475 seconds
#
# Revision: 0
# Processed by: cddbd v1.5.2PL0 Copyright (c) Steve Scherf et al.
# Submitted via: audiograbber 1.83.01
#
DISCID=e011790f
DTITLE=Vida Por La Vida - Meditation and Harmony
DYEAR=2007
DGENRE=Mystical Sounds
TTITLE0=Sunrise Song
TTITLE1=Vision and Dreams
TTITLE2=Holy Land
TTITLE3=Vida Por La Vida
TTITLE4=Harmony
TTITLE5=The White Buffalo
TTITLE6=The Sacred Fire
TTITLE7=Spiritual Mitayo
TTITLE8=El Dolar
TTITLE9=Dream Catcher
TTITLE10=Sunqui Man
TTITLE11=How Long
TTITLE12=El Condor Pasa
TTITLE13=Jakuche
TTITLE14=San Juan Andino
EXTD=
EXTT0=
EXTT1=
EXTT2=
EXTT3=
EXTT4=
EXTT5=
EXTT6=
EXTT7=
EXTT8=
EXTT9=
EXTT10=
EXTT11=
EXTT12=
EXTT13=
EXTT14=
PLAYORDER=
